<?xml version="1.0" encoding="UTF-8"?>
<svg width="310px" height="280px" viewBox="0 0 310 280" version="1.1" xmlns="http://www.w3.org/2000/svg" xmlns:xlink="http://www.w3.org/1999/xlink">
    <!-- Generator: Sketch 42 (36781) - http://www.bohemiancoding.com/sketch -->
    <title>Group 6</title>
    <desc>Created with Sketch.</desc>
    <defs>
        <rect id="path-1" x="0" y="0" width="310" height="280"></rect>
        <mask id="mask-2" maskContentUnits="userSpaceOnUse" maskUnits="objectBoundingBox" x="0" y="0" width="310" height="280" fill="white">
            <use xlink:href="#path-1"></use>
        </mask>
    </defs>
    <g id="Page-1" stroke="none" stroke-width="1" fill="none" fill-rule="evenodd">
        <g id="landingPage-style" transform="translate(-565.000000, -834.000000)">
            <g id="Group-6" transform="translate(565.000000, 834.000000)">
                <g id="Group-5-Copy" stroke="#979797">
                    <use id="Rectangle-6" mask="url(#mask-2)" stroke-width="2" fill="#0A004F" xlink:href="#path-1"></use>
                    <path d="M82.56,81 C82.56,81 116.56,88 151.56,88 C151.56,88 143.56,209 148.56,216 C153.56,223 131.56,225 131.56,225 C131.56,225 72.56,226 64.56,213 C61.2412844,207.607087 65.6823446,204.659226 66.56,201 C67.4376554,197.340774 66.56,191 66.56,191 L37.56,168 C37.56,168 33.56,162 35.56,148 C37.56,134 40.56,100 52.56,103 C64.56,106 75.56,105 75.56,105 C75.56,105 79.56,107 79.56,102 C79.56,97 82.56,81 82.56,81 Z M59.56,112 C59.56,112 51.56,109 49.56,117 C47.56,125 43.56,142 43.56,149 C43.56,156 42.56,160 49.56,165 C56.56,170 69.56,177 69.56,177 L76.56,127 C76.56,127 77.56,118 73.56,115 C69.56,112 59.56,112 59.56,112 Z" id="Combined-Shape" fill="#FFC17B"></path>
                    <path d="M149.288761,126.723651 C150.432595,105.051994 151.56,88 151.56,88 C116.56,88 82.56,81 82.56,81 C82.56,81 79.56,97 79.56,102 C79.56,107 75.56,105 75.56,105 C75.56,105 64.56,106 52.56,103 C40.56,100 37.56,134 35.56,148 C33.56,162 37.56,168 37.56,168 L64.3312252,189.232351 L66.3022594,175.207715 C61.9867274,172.800706 54.3617328,168.429809 49.56,165 C42.56,160 43.56,156 43.56,149 C43.56,142 47.56,125 49.56,117 C51.56,109 59.56,112 59.56,112 C59.56,112 69.56,112 73.56,115 C74.019214,115.34441 74.4125288,115.7679 74.7490229,116.247772 L149.288761,126.723651 Z" id="Combined-Shape" fill="#FFFFFF"></path>
                    <path d="M156,81 C156,81 187,82 235,74 C235,74 238,76 239,89 L251,88 C251,88 262,87 265,96 C268,105 280,155 274,167 C268,179 249,191 249,191 L251,204 C251,204 257,212 249,215 C241,218 198,226 176,224 C154,222 164,211 164,211 C164,211 164.952836,180.483581 164,165 C163.047164,149.516419 156,81 156,81 Z M241,99 L247,176 C247,176 261,174 266,161 C271,148 261,113 259,105 C257,97 252,98 252,98 L241,99 Z" id="Combined-Shape" fill="#FFCB5F"></path>
                    <path d="M250.627663,189.9256 C255.356261,186.725013 269.068747,176.862507 274,167 C280,155 268,105 265,96 C262,87 251,88 251,88 L239,89 C238,76 235,74 235,74 C187,82 156,81 156,81 C156,81 157.276233,93.4082381 158.815912,108.857175 L241.262799,102.372589 L241,99 L252,98 C252,98 257,97 259,105 C261,113 271,148 266,161 C262.419384,170.309603 254.223274,173.978047 249.858452,175.310596 L250.627663,189.9256 Z" id="Combined-Shape" fill="#FFFFFF"></path>
                    <path d="M81.199067,75.2091837 C88.199067,64.2091837 110.199067,74.2091837 110.199067,74.2091837 C110.199067,74.2091837 109.199067,61.2091837 125.199067,63.2091837 C141.199067,65.2091837 136.199067,75.2091837 136.199067,75.2091837 C136.199067,75.2091837 143.199067,69.2091837 150.199067,74.2091837 C157.199067,79.2091837 153.199067,87.2091837 153.199067,87.2091837 C153.199067,87.2091837 159.199067,90.2091837 156.199067,94.2091837 C153.199067,98.2091837 154.199067,123.209184 152.199067,123.209184 C150.199067,123.209184 148.199067,119.209184 148.199067,100.209184 C148.199067,100.209184 147.199067,105.209184 139.199067,103.209184 C131.199067,101.209184 132.199067,90.2091837 132.199067,90.2091837 C132.199067,90.2091837 127.779067,100.209184 124.199067,97.2091837 C120.619067,94.2091837 120.199067,88.2091837 120.199067,88.2091837 C120.199067,88.2091837 114.199067,104.209184 103.199067,97.2091837 C92.199067,90.2091837 98.199067,87.2091837 98.199067,87.2091837 C98.199067,87.2091837 96.199067,92.2091837 90.199067,91.2091837 C84.199067,90.2091837 86.199067,86.2091837 86.199067,86.2091837 C86.199067,86.2091837 85.199067,93.3137755 81.199067,93.2091837 C77.199067,93.1045918 74.199067,86.2091837 81.199067,75.2091837 Z" id="Path-11" fill="#FFFFFF"></path>
                    <path d="M154.099172,81.1020408 C154.099172,81.1020408 150.914664,55.1020408 180.636732,60.1020408 C180.636732,60.1020408 192.313259,50.1020408 200.805278,58.1020408 C200.805278,58.1020408 218.85082,55.1020408 223.096829,61.1020408 C223.096829,61.1020408 232.650351,56.1020408 235.834859,64.1020408 C235.834859,64.1020408 248.572888,71.1020408 240.080868,76.1020408 C240.080868,76.1020408 227.342839,79.1020408 227.342839,75.1020408 C227.342839,75.1020408 223.096829,85.1020408 214.60481,83.1020408 C206.112791,81.1020408 215.666312,127.102041 209.297298,121.102041 C202.928283,115.102041 203.989786,84.1020408 203.989786,84.1020408 C203.989786,84.1020408 205.051288,105.882944 199.743776,97.1020408 C194.436264,88.3211379 198.682274,90.1020408 198.682274,90.1020408 C198.682274,90.1020408 193.374761,95.8829437 185.944244,92.1020408 C178.513727,88.3211379 177.452225,110.102041 168.960206,97.1020408 C168.960206,97.1020408 165.775698,106.102041 161.529689,100.102041 C157.283679,94.1020408 154.099172,81.1020408 154.099172,81.1020408 Z" id="Path-12" fill="#FFFFFF"></path>
                </g>
                <polygon id="Rectangle-8" fill="#000000" opacity="0.728204257" points="0 0 310 0 310 135 310 280 0 280"></polygon>
            </g>
        </g>
    </g>
</svg>