<?xml version="1.0" encoding="UTF-8"?>
<svg width="390px" height="346px" viewBox="0 0 390 346" version="1.1" xmlns="http://www.w3.org/2000/svg" xmlns:xlink="http://www.w3.org/1999/xlink">
    <!-- Generator: Sketch 42 (36781) - http://www.bohemiancoding.com/sketch -->
    <title>Group 4</title>
    <desc>Created with Sketch.</desc>
    <defs></defs>
    <g id="Page-1" stroke="none" stroke-width="1" fill="none" fill-rule="evenodd">
        <g id="landingPage-style" transform="translate(-263.000000, -151.000000)">
            <g id="Group-4" transform="translate(265.000000, 153.000000)">
                <path d="M275.372025,35.5365628 C246.495036,13.2544883 210.295394,0 171,0 C76.5593078,0 5.68434189e-14,76.5593078 5.68434189e-14,171 C5.68434189e-14,265.440692 76.5593078,342 171,342 C209.233939,342 244.537113,329.451906 273.015985,308.249257 L239.794003,294.682164 C219.429188,306.033664 195.969898,312.501348 171,312.501348 C92.8509636,312.501348 29.4986523,249.149036 29.4986523,171 C29.4986523,92.8509636 92.8509636,29.4986523 171,29.4986523 C196.460925,29.4986523 220.351246,36.2232076 240.991808,47.993163 L275.372025,35.5365628 Z" id="Combined-Shape" stroke="#AF7676" stroke-width="3"></path>
                <g id="Group-3" transform="translate(163.000000, 224.000000)">
                    <path d="M24.8019628,28.5605346 L6.84192079,28.5605346 L6.84192079,3.3194772 L0,0.708333333 L0,67.7276926 L6.84184545,62.5054049 L6.84184545,35.5777729 L24.8019628,35.5777729 L42.7620802,35.5777729 L42.7620802,62.5054049 L49.6039257,67.7276926 L49.6039257,0.708333333 L42.7620049,3.3194772 L42.7620049,28.5605346 L24.8019628,28.5605346 Z" id="Combined-Shape" fill="#AF7676"></path>
                    <g id="Group-2" transform="translate(63.880126, 5.666667)" fill="#FF8D8D">
                        <rect id="Rectangle-3" x="51.3144059" y="0" width="6.84192079" height="28.7225825"></rect>
                        <rect id="Rectangle-3-Copy" x="0" y="0" width="6.84192079" height="28.7225825"></rect>
                        <path d="M6.84192079,8.78208896 C2.57284843,13.9324705 0,20.5865561 0,27.8522013 C0,44.1959439 13.0187372,57.4451651 29.0781633,57.4451651 C45.1375895,57.4451651 58.1563267,44.1959439 58.1563267,27.8522013 C58.1563267,20.5865561 55.5834782,13.9324705 51.3144059,8.78208896 L51.3144059,27.8521895 C51.3144059,40.3503574 41.358901,50.4821148 29.0781633,50.4821148 C16.7974257,50.4821148 6.84192079,40.3503574 6.84192079,27.8522013 L6.84192079,8.78208896 Z" id="Combined-Shape"></path>
                    </g>
                    <path d="M129.179811,4.95833333 L184.776995,4.95833333 L149.705573,67.6257862 L144.574132,60.6627358 L159.113214,34.5512972 L129.179811,4.95833333 Z M147.995093,12.7917649 L164.244655,27.5882469 L171.941816,12.7917649 L147.995093,12.7917649 Z" id="Combined-Shape" fill="#AF7676"></path>
                    <polygon id="Path-5" fill="#AF7676" points="217.192429 0 224.88959 4.35190645 224.88959 60.9333851 217.192429 66.148978"></polygon>
                </g>
            </g>
        </g>
    </g>
</svg>