<?xml version="1.0" encoding="utf-8"?>
<!-- Generator: Adobe Illustrator 21.1.0, SVG Export Plug-In . SVG Version: 6.00 Build 0)  -->
<svg version="1.1" id="Layer_1" xmlns="http://www.w3.org/2000/svg" xmlns:xlink="http://www.w3.org/1999/xlink" x="0px" y="0px"
	 viewBox="0 0 27 27" style="enable-background:new 0 0 27 27;" xml:space="preserve">
<style type="text/css">
	.st0{fill:#AF7676;}
</style>
<title>icon-ins</title>
<desc>Created with Sketch.</desc>
<g id="Page-1">
	<g id="red" transform="translate(-707.000000, -2168.000000)">
		<g id="icon-ins" transform="translate(707.000000, 2168.000000)">
			<path id="Shape" class="st0" d="M26.8,13.4c-0.1,2.4,0.1,4.7-0.1,7.1c-0.4,3.7-3.2,6.2-6.9,6.3c-4.1,0.1-8.3,0.1-12.5,0
				c-4.1-0.1-7-3.1-7.1-7.2s-0.1-8.2,0-12.3c0.1-4.2,3.1-7.1,7.2-7.3c4-0.1,8.1-0.1,12.1,0c4.1,0.1,7,3.1,7.2,7.2
				C26.9,9.4,26.8,11.4,26.8,13.4z M13.5,24.4L13.5,24.4c1.9,0,3.8,0.1,5.8,0c3.2-0.1,5-1.9,5.1-5.2c0.1-3.9,0.1-7.8,0-11.7
				c-0.1-3-1.9-4.9-4.9-5c-4-0.1-8-0.1-12,0c-2.9,0.1-4.8,2-4.8,4.9c-0.1,4-0.1,8,0,11.9c0.1,3.1,1.9,4.9,4.9,5
				C9.6,24.5,11.6,24.4,13.5,24.4L13.5,24.4z"/>
			<path id="Shape_1_" class="st0" d="M20.4,13.4c0,3.8-3.1,6.9-6.8,6.9s-6.9-3.1-6.9-6.9c0-3.9,3-7,6.9-7c1.8,0,3.6,0.7,4.9,2
				S20.4,11.6,20.4,13.4z M17.9,13.4c0-2.5-2-4.5-4.5-4.4S9,11,9,13.4s2,4.5,4.4,4.5c1.2,0,2.3-0.5,3.2-1.3
				C17.5,15.7,17.9,14.6,17.9,13.4z"/>
			<path id="Shape_2_" class="st0" d="M22.3,6.3c0,0.4-0.2,0.8-0.5,1.2c-0.3,0.3-0.7,0.5-1.1,0.5c-0.9,0-1.6-0.7-1.6-1.6
				c0-0.4,0.2-0.8,0.5-1.2c0.3-0.3,0.7-0.5,1.1-0.5c0.4,0,0.8,0.1,1.1,0.5C22.1,5.4,22.3,5.8,22.3,6.3L22.3,6.3z"/>
		</g>
	</g>
</g>
</svg>
