<?xml version="1.0" encoding="UTF-8"?>
<svg width="78px" height="71px" viewBox="0 0 78 71" version="1.1" xmlns="http://www.w3.org/2000/svg" xmlns:xlink="http://www.w3.org/1999/xlink">
    <!-- Generator: Sketch 42 (36781) - http://www.bohemiancoding.com/sketch -->
    <title>icon-chuyi</title>
    <desc>Created with Sketch.</desc>
    <defs></defs>
    <g id="Page-1" stroke="none" stroke-width="1" fill="none" fill-rule="evenodd">
        <g id="icon-chuyi" transform="translate(2.000000, 2.000000)" fill-rule="nonzero" stroke="#102E58" stroke-width="3" fill="#FFFFFF">
            <g id="Page-1">
                <g id="landingPage-style">
                    <g id="Group">
                        <path d="M2.93528204,8.00000002e-07 C1.0457305,4.40655905 -7.99999995e-07,9.25689432 -7.99999995e-07,14.3501716 C-7.99999995e-07,34.5679777 16.477583,50.957748 36.8037126,50.957748 C57.1298423,50.957748 73.607426,34.5679777 73.607426,14.3501716 C73.607426,9.25689432 72.5616947,4.40655905 70.6721432,8.00000005e-07 L2.93527675,1.64555927e-06 L2.93528204,8.00000002e-07 Z" id="Combined-Shape-Copy" transform="translate(36.803713, 25.478874) rotate(-180.000000) translate(-36.803713, -25.478874) "></path>
                        <path d="M9.47991802,25.9507042 C7.95777928,29.5004317 7.11538462,33.4076463 7.11538462,37.5105641 C7.11538462,53.7971302 20.3889938,67.0000007 36.7628205,67.0000007 C53.1366472,67.0000007 66.4102564,53.7971302 66.4102564,37.5105641 C66.4102564,33.4076463 65.5678617,29.5004317 64.045723,25.9507042 L9.47991376,25.9507049 L9.47991802,25.9507042 Z" id="Combined-Shape"></path>
                    </g>
                </g>
            </g>
        </g>
    </g>
</svg>