<?xml version="1.0" encoding="utf-8"?>
<!-- Generator: Adobe Illustrator 21.1.0, SVG Export Plug-In . SVG Version: 6.00 Build 0)  -->
<svg version="1.1" id="Layer_1" xmlns="http://www.w3.org/2000/svg" xmlns:xlink="http://www.w3.org/1999/xlink" x="0px" y="0px"
	 viewBox="0 0 15 28" style="enable-background:new 0 0 15 28;" xml:space="preserve">
<style type="text/css">
	.st0{fill:#AF7676;}
</style>
<title>fb</title>
<desc>Created with Sketch.</desc>
<g id="Page-1">
	<g id="red" transform="translate(-640.000000, -2168.000000)">
		<path id="fb" class="st0" d="M648.7,2195.1h-5.9v-14.3H640c0-0.2,0-0.3,0-0.4c0-1.2,0-2.4,0-3.5c0-0.3,0.1-0.4,0.4-0.4
			c0.6,0,1.3,0,2,0c0.3,0,0.4-0.1,0.4-0.4c0-1,0-1.9,0.1-2.9c0.1-1.7,0.9-3.1,2.4-4.1c0.8-0.5,1.7-0.8,2.7-0.9
			c1.1-0.1,2.2-0.2,3.2-0.1c0.8,0.1,1.6,0.3,2.4,0.5c0.4,0.1,0.9,0.3,1.4,0.4c-0.4,1.4-0.7,2.7-1.1,4.1c-0.3-0.2-0.6-0.3-0.9-0.5
			c-0.9-0.5-1.8-0.5-2.8-0.3c-0.6,0.2-1.1,0.6-1.2,1.2c-0.1,0.9-0.1,1.8-0.2,2.7c0,0.2,0.2,0.2,0.3,0.2h4.4
			c-0.1,0.6-0.2,1.1-0.4,1.6c-0.2,0.8-0.4,1.6-0.6,2.4c0,0.2-0.1,0.3-0.4,0.3c-1,0-2,0-3,0h-0.4
			C648.7,2185.5,648.7,2190.3,648.7,2195.1z"/>
	</g>
</g>
</svg>
