<?xml version="1.0" encoding="utf-8"?>
<!-- Generator: Adobe Illustrator 21.1.0, SVG Export Plug-In . SVG Version: 6.00 Build 0)  -->
<svg version="1.1" id="Layer_1" xmlns="http://www.w3.org/2000/svg" xmlns:xlink="http://www.w3.org/1999/xlink" x="0px" y="0px"
	 viewBox="0 0 27 28" style="enable-background:new 0 0 27 28;" xml:space="preserve">
<style type="text/css">
	.st0{fill:#AF7676;}
</style>
<title>Combined Shape</title>
<desc>Created with Sketch.</desc>
<g id="Page-1">
	<g id="red" transform="translate(-776.000000, -2168.000000)">
		<path id="Combined-Shape" class="st0" d="M779.3,2174.6c-1.8,0-3.3-1.5-3.3-3.3s1.5-3.3,3.3-3.3c1.8,0,3.3,1.5,3.3,3.3
			S781.1,2174.6,779.3,2174.6z M776.4,2176.9h5.8v18.5h-5.8V2176.9z M790.3,2182.3v13.1h-5.4v-18.5h5.4v2.4c0,0,6.9-7.7,12.3,0
			l0.4,16.2h-6.2v-13.1c0,0,0-1.9-2.9-1.9C791,2180.3,790.3,2182.3,790.3,2182.3z"/>
	</g>
</g>
</svg>
