<?xml version="1.0" encoding="UTF-8"?>
<svg width="310px" height="280px" viewBox="0 0 310 280" version="1.1" xmlns="http://www.w3.org/2000/svg" xmlns:xlink="http://www.w3.org/1999/xlink">
    <!-- Generator: Sketch 42 (36781) - http://www.bohemiancoding.com/sketch -->
    <title>Group 10</title>
    <desc>Created with Sketch.</desc>
    <defs></defs>
    <g id="Page-1" stroke="none" stroke-width="1" fill="none" fill-rule="evenodd">
        <g id="landingPage-style-Copy-2" transform="translate(-898.000000, -1141.000000)">
            <g id="Group-10" transform="translate(898.000000, 1141.000000)">
                <rect id="Rectangle-13-Copy-2" fill="#030303" x="0" y="0" width="310" height="280"></rect>
                <polygon id="Triangle-2" fill="#00C9FF" opacity="0.26341712" points="38.5 0 50 0 66 216 11 216"></polygon>
                <polygon id="Triangle-2-Copy-4" fill="#00C9FF" opacity="0.537986866" points="239.5 1 251 1 267 156 212 156"></polygon>
                <polygon id="Triangle-2-Copy" fill="#FF4343" opacity="0.341089221" points="94.5 0 108.927273 0 129 253.375 60 253.375"></polygon>
                <polygon id="Triangle-2-Copy-2" fill="#FFEE5D" opacity="0.537986866" points="137.5 1.16768574e-15 154 0 172 224.375 103 224.375"></polygon>
                <polygon id="Triangle-2-Copy-3" fill="#00FF44" opacity="0.341089221" points="189 0 199 0 238 280 135 280"></polygon>
                <polygon id="Triangle-2-Copy-5" fill="#FFEE5D" opacity="0.537986866" points="282.5 1 298 1 309.967543 108.29521 309.967543 261 238 261"></polygon>
            </g>
        </g>
    </g>
</svg>