<?xml version="1.0" encoding="UTF-8"?>
<svg width="78px" height="71px" viewBox="0 0 78 71" version="1.1" xmlns="http://www.w3.org/2000/svg" xmlns:xlink="http://www.w3.org/1999/xlink">
    <!-- Generator: Sketch 42 (36781) - http://www.bohemiancoding.com/sketch -->
    <title>Group</title>
    <desc>Created with Sketch.</desc>
    <defs></defs>
    <g id="Page-1" stroke="none" stroke-width="1" fill="none" fill-rule="evenodd">
        <g id="Silent" transform="translate(-220.000000, -13.000000)" stroke="#000000" stroke-width="3" fill="#FFFFFF">
            <g id="Group" transform="translate(222.000000, 15.000000)">
                <path d="M2.93528284,-6.57252031e-14 C1.0457313,4.40655825 -1.1937118e-12,9.25689352 -1.1937118e-12,14.3501708 C-1.1937118e-12,34.5679769 16.4775838,50.9577472 36.8037134,50.9577472 C57.1298431,50.9577472 73.6074268,34.5679769 73.6074268,14.3501708 C73.6074268,9.25689352 72.5616955,4.40655825 70.672144,-6.26165786e-14 L2.93527755,8.45559203e-07 Z" id="Combined-Shape-Copy" transform="translate(36.803713, 25.478874) rotate(-180.000000) translate(-36.803713, -25.478874) "></path>
                <path d="M9.47991802,25.9507042 C7.95777928,29.5004317 7.11538462,33.4076463 7.11538462,37.5105641 C7.11538462,53.7971302 20.3889938,67.0000007 36.7628205,67.0000007 C53.1366472,67.0000007 66.4102564,53.7971302 66.4102564,37.5105641 C66.4102564,33.4076463 65.5678617,29.5004317 64.045723,25.9507042 L9.47991376,25.9507049 Z" id="Combined-Shape"></path>
            </g>
        </g>
    </g>
</svg>