<?xml version="1.0" encoding="UTF-8"?>
<svg width="1440px" height="834px" viewBox="0 0 1440 834" version="1.1" xmlns="http://www.w3.org/2000/svg" xmlns:xlink="http://www.w3.org/1999/xlink">
    <!-- Generator: Sketch 42 (36781) - http://www.bohemiancoding.com/sketch -->
    <title>Group 3</title>
    <desc>Created with Sketch.</desc>
    <defs>
        <path d="M1073,64 C1034.20184,116.996358 986,119 995,169 C1004,219 1097,219 1121,269 C1145,319 1139,302 1117,372 C1095,442 1133,448 1154,448 C1175,448 1278,436 1307,464 C1307,464 1202,485 1174,506 C1146,527 1156,590 1212,599 C1268,608 1240,654 1240,695 C1240,736 1273,789 1298,807 C1323,825 1432,835 1439,816 C1446,797 1439,0.990184108 1439,0.990184108 L1117.99847,0.990184108 C1117.99847,0.990184108 1111.79816,11.0036419 1073,64 Z" id="path-1"></path>
        <filter x="-50%" y="-50%" width="200%" height="200%" filterUnits="objectBoundingBox" id="filter-2">
            <feOffset dx="-10" dy="-4" in="SourceAlpha" result="shadowOffsetOuter1"></feOffset>
            <feGaussianBlur stdDeviation="2" in="shadowOffsetOuter1" result="shadowBlurOuter1"></feGaussianBlur>
            <feColorMatrix values="0 0 0 0 1   0 0 0 0 1   0 0 0 0 1  0 0 0 0.5 0" type="matrix" in="shadowBlurOuter1"></feColorMatrix>
        </filter>
    </defs>
    <g id="Page-1" stroke="none" stroke-width="1" fill="none" fill-rule="evenodd">
        <g id="Silent" transform="translate(0.000000, -46.000000)">
            <g id="Group-3" transform="translate(-2.000000, 53.000000)">
                <rect id="Rectangle-3" fill="#161055" x="2" y="1" width="1440" height="825"></rect>
                <g id="Group-2" transform="translate(0.000000, 335.000000)" stroke-width="3">
                    <path d="M0,167.398325 C0,167.398325 10,116.398325 25,132.398325 C40,148.398325 34,185.398325 54,185.398325 C74,185.398325 84,101.398325 150,183.398325 C216,265.398325 209,70.3983249 225,132.398325 C241,194.398325 250,288.398325 261,223.398325 C272,158.398325 271,220.398325 287,220.398325 C303,220.398325 294,99.3983249 314,120.398325 C334,141.398325 317,249.398325 345,217.398325 C373,185.398325 382,123.398325 428,173.398325 C474,223.398325 473,-118.601675 497,44.3983249 C521,207.398325 518,397.398325 531,285.398325 C544,173.398325 561,45.3983249 561,126.398325 C561,207.398325 569,297.398325 580,235.398325 C591,173.398325 605,199.398325 605,217.398325 C605,235.398325 631,243.271176 631,201.398325 C631,159.525473 657,182.398325 657,182.398325 C657,182.398325 668,194.398325 688,194.398325 L746.00862,194.398325 C746.00862,194.398325 746,209.398325 757,213.398325 C768,217.398325 765,116.398325 775,155.398325 C785,194.398325 783,265.398325 793,219.398325 C803,173.398325 811,51.2711764 819,105.398325 C827,159.525473 819,256.398325 834,232.398325 C849,208.398325 843,-86.6016751 853,48.3983249 C863,183.398325 849,283.398325 868,212.398325 C887,141.398325 892,101.398325 919,143.398325 C946,185.398325 955,129.398325 966,120.398325 C977,111.398325 976,203.398325 986,219.398325 C996,235.398325 993,-84.6016751 1003,28.3983249 C1013,141.398325 1006,175.398325 1026,180.398325 C1046,185.398325 1186,180.398325 1186,180.398325" id="Path-3" stroke="#5200FF"></path>
                    <path d="M2,174.398325 C2,174.398325 12,123.398325 27,139.398325 C42,155.398325 36,192.398325 56,192.398325 C76,192.398325 86,108.398325 152,190.398325 C218,272.398325 211,77.3983249 227,139.398325 C243,201.398325 252,295.398325 263,230.398325 C274,165.398325 273,227.398325 289,227.398325 C305,227.398325 296,106.398325 316,127.398325 C336,148.398325 319,256.398325 347,224.398325 C375,192.398325 384,130.398325 430,180.398325 C476,230.398325 475,-111.601675 499,51.3983249 C523,214.398325 520,404.398325 533,292.398325 C546,180.398325 563,52.3983249 563,133.398325 C563,214.398325 571,304.398325 582,242.398325 C593,180.398325 607,206.398325 607,224.398325 C607,242.398325 633,250.271176 633,208.398325 C633,166.525473 659,189.398325 659,189.398325 C659,189.398325 670,201.398325 690,201.398325 L748.00862,201.398325 C748.00862,201.398325 748,216.398325 759,220.398325 C770,224.398325 767,123.398325 777,162.398325 C787,201.398325 785,272.398325 795,226.398325 C805,180.398325 813,58.2711764 821,112.398325 C829,166.525473 821,263.398325 836,239.398325 C851,215.398325 845,-79.6016751 855,55.3983249 C865,190.398325 851,290.398325 870,219.398325 C889,148.398325 894,108.398325 921,150.398325 C948,192.398325 957,136.398325 968,127.398325 C979,118.398325 978,210.398325 988,226.398325 C998,242.398325 995,-77.6016751 1005,35.3983249 C1015,148.398325 1008,182.398325 1028,187.398325 C1048,192.398325 1188,187.398325 1188,187.398325" id="Path-3-Copy-2" stroke="#00FF5F"></path>
                    <path d="M2,194.398325 C2,194.398325 12,143.398325 27,159.398325 C42,175.398325 36,212.398325 56,212.398325 C76,212.398325 86,128.398325 152,210.398325 C218,292.398325 211,97.3983249 227,159.398325 C243,221.398325 252,315.398325 263,250.398325 C274,185.398325 273,247.398325 289,247.398325 C305,247.398325 296,126.398325 316,147.398325 C336,168.398325 319,276.398325 347,244.398325 C375,212.398325 384,150.398325 430,200.398325 C476,250.398325 475,-91.6016751 499,71.3983249 C523,234.398325 520,424.398325 533,312.398325 C546,200.398325 563,72.3983249 563,153.398325 C563,234.398325 571,324.398325 582,262.398325 C593,200.398325 607,226.398325 607,244.398325 C607,262.398325 633,270.271176 633,228.398325 C633,186.525473 659,209.398325 659,209.398325 C659,209.398325 670,221.398325 690,221.398325 L748.00862,221.398325 C748.00862,221.398325 748,236.398325 759,240.398325 C770,244.398325 767,143.398325 777,182.398325 C787,221.398325 785,292.398325 795,246.398325 C805,200.398325 813,78.2711764 821,132.398325 C829,186.525473 821,283.398325 836,259.398325 C851,235.398325 845,-59.6016751 855,75.3983249 C865,210.398325 851,310.398325 870,239.398325 C889,168.398325 894,128.398325 921,170.398325 C948,212.398325 957,156.398325 968,147.398325 C979,138.398325 978,230.398325 988,246.398325 C998,262.398325 995,-57.6016751 1005,55.3983249 C1015,168.398325 1008,202.398325 1028,207.398325 C1048,212.398325 1188,207.398325 1188,207.398325" id="Path-3-Copy" stroke="#00E9FF"></path>
                </g>
                <g id="Path-2">
                    <use fill="black" fill-opacity="1" filter="url(#filter-2)" xlink:href="#path-1"></use>
                    <use fill="#131C60" fill-rule="evenodd" xlink:href="#path-1"></use>
                </g>
            </g>
        </g>
    </g>
</svg>