<?xml version="1.0" encoding="UTF-8"?>
<svg width="310px" height="280px" viewBox="0 0 310 280" version="1.1" xmlns="http://www.w3.org/2000/svg" xmlns:xlink="http://www.w3.org/1999/xlink">
    <!-- Generator: Sketch 42 (36781) - http://www.bohemiancoding.com/sketch -->
    <title>Group 11</title>
    <desc>Created with Sketch.</desc>
    <defs></defs>
    <g id="Page-1" stroke="none" stroke-width="1" fill="none" fill-rule="evenodd">
        <g id="landingPage-style-Copy-2" transform="translate(-170.000000, -1497.000000)">
            <g id="Group-11" transform="translate(170.000000, 1497.000000)">
                <g id="Group-9-Copy">
                    <rect id="Rectangle-13" fill="#12421A" x="0" y="0" width="310" height="280"></rect>
                    <path d="M20.448,104.873333 C20.448,104.873333 11.552,97.08 20.448,90.4 C29.344,83.72 87.168,59.2266667 87.168,59.2266667 C87.168,59.2266667 98.288,53.66 111.632,60.34 C124.976,67.02 283.992,142.726667 283.992,142.726667 C283.992,142.726667 300.672,151.633333 289.552,162.766667 C278.432,173.9 225.056,215.093333 225.056,215.093333 C225.056,215.093333 209.24475,234.02 181.688,215.093333 C154.13125,196.166667 20.448,104.873333 20.448,104.873333 Z" id="Path-14" stroke="#000000" fill="#000000"></path>
                    <polygon id="Path-13" fill="#6C6C6C" points="22.672 100.42 110.52 61.4533333 270.648 138.273333 177.24 203.96"></polygon>
                    <path d="M152.004408,179.837778 C152.004408,179.837778 147.556408,175.384444 154.228408,170.931111 C160.900408,166.477778 225.396408,127.511111 225.396408,127.511111 C225.396408,127.511111 230.956408,124.171111 235.404408,127.511111 C239.852408,130.851111 234.292408,134.191111 234.292408,134.191111 L164.236408,178.724444 C164.236408,178.724444 159.759887,181.864616 157.564408,182.064444 C155.368929,182.264273 153.116408,180.951111 152.004408,179.837778 Z" id="Path-15" fill="#000000"></path>
                    <path d="M138.660408,172.044444 C138.660408,172.044444 134.212408,167.591111 140.884408,163.137778 C147.556408,158.684444 212.052408,119.717778 212.052408,119.717778 C212.052408,119.717778 217.612408,116.377778 222.060408,119.717778 C226.508408,123.057778 220.948408,126.397778 220.948408,126.397778 L150.892408,170.931111 C150.892408,170.931111 146.415887,174.071283 144.220408,174.271111 C142.024929,174.470939 139.772408,173.157778 138.660408,172.044444 Z" id="Path-15-Copy" fill="#000000"></path>
                    <path d="M127.540408,162.024444 C127.540408,162.024444 123.092408,157.571111 129.764408,153.117778 C136.436408,148.664444 202.816,110.44 202.816,110.44 C202.816,110.44 205.04,108.213333 209.488,111.553333 C213.936,114.893333 209.488,118.233333 209.488,118.233333 L139.772408,160.911111 C139.772408,160.911111 135.295887,164.051283 133.100408,164.251111 C130.904929,164.450939 128.652408,163.137778 127.540408,162.024444 Z" id="Path-15-Copy-2" fill="#000000"></path>
                    <polyline id="Path-16" stroke="#000000" stroke-width="5" stroke-linecap="round" points="96 137 96 125 133 130 112 71"></polyline>
                </g>
                <rect id="Rectangle-14" fill="#000000" opacity="0.456182065" x="0" y="0" width="310" height="280"></rect>
            </g>
        </g>
    </g>
</svg>