<?xml version="1.0" encoding="UTF-8"?>
<svg width="310px" height="280px" viewBox="0 0 310 280" version="1.1" xmlns="http://www.w3.org/2000/svg" xmlns:xlink="http://www.w3.org/1999/xlink">
    <!-- Generator: Sketch 42 (36781) - http://www.bohemiancoding.com/sketch -->
    <title>Group 6</title>
    <desc>Created with Sketch.</desc>
    <defs></defs>
    <g id="Page-1" stroke="none" stroke-width="1" fill="none" fill-rule="evenodd">
        <g id="landingPage-style-Copy-2" transform="translate(-565.000000, -834.000000)">
            <g id="Group-6" transform="translate(565.000000, 834.000000)">
                <g id="Group-5-Copy" fill="#7D002B">
                    <rect id="Rectangle-6" x="0" y="0" width="310" height="280"></rect>
                </g>
                <g id="Group-3" transform="translate(12.000000, 41.000000)">
                    <path d="M112.577916,36.380597 C112.577916,36.380597 142.415066,23.2835821 179.529569,37.8358209 C179.529569,37.8358209 181.712776,13.8246269 194.812012,2.91044776 C194.812012,2.91044776 258.852725,82.9477612 221.010486,133.152985 L221.738221,135.335821 L243.570282,119.328358 C243.570282,119.328358 250.847636,114.962687 250.847636,106.231343 C250.847636,97.5 259.58046,95.3171642 262.491402,98.9552239 C262.491402,98.9552239 275.590638,92.4067164 276.318374,104.776119 C276.318374,104.776119 289.41761,104.776119 284.323463,118.600746 C284.323463,118.600746 290.145346,133.152985 273.407432,131.697761 C273.407432,131.697761 269.04102,132.425373 264.674608,137.518657 L223.921427,173.899254 L224.649162,195 L66.0011828,195 L67.4583227,177.537313 L31.0715542,144.067164 C31.0715542,144.067164 14.3336407,129.514925 10.6949639,132.425373 C7.05628703,135.335821 -4.58747888,128.059701 1.96213944,120.05597 C1.96213944,120.05597 -4.58747888,106.231343 9.23949313,104.776119 C9.23949313,104.776119 10.6949639,93.8619403 23.0664651,98.9552239 C23.0664651,98.9552239 37.6211725,94.5895522 36.1657018,110.597015 C36.1657018,110.597015 36.1657018,114.962687 41.2598494,117.873134 L71.0969995,139.701493 L71.8247349,136.063433 C71.8247349,136.063433 52.7962842,118.696184 57.9977629,80.0373134 C63.1992415,41.3784431 79.1311625,15.2507817 94.3845313,0 L112.577916,36.380597 Z" id="Path-2" stroke="#000000" stroke-width="2" fill="#959595"></path>
                    <g id="Group-2" transform="translate(99.699746, 62.388060)">
                        <path d="M17.4656489,34.9253731 C27.1116604,34.9253731 32.0203562,27.107062 32.0203562,17.4626866 C32.0203562,7.81831109 27.1116604,0 17.4656489,0 C7.81963735,0 0,7.81831109 0,17.4626866 C0,27.107062 7.81963735,34.9253731 17.4656489,34.9253731 Z" id="Oval-2" stroke="#000000" stroke-width="2" fill="#FFFFFF"></path>
                        <ellipse id="Oval-3" fill="#000000" cx="19.2849873" cy="9.82276119" rx="6.91348601" ry="6.91231343"></ellipse>
                        <path d="M71.3180662,34.9253731 C80.9640777,34.9253731 85.8727735,27.107062 85.8727735,17.4626866 C85.8727735,7.81831109 80.9640777,0 71.3180662,0 C61.6720546,0 53.8524173,7.81831109 53.8524173,17.4626866 C53.8524173,27.107062 61.6720546,34.9253731 71.3180662,34.9253731 Z" id="Oval-2-Copy" stroke="#000000" stroke-width="2" fill="#FFFFFF" transform="translate(69.862595, 17.462687) scale(-1, 1) translate(-69.862595, -17.462687) "></path>
                        <ellipse id="Oval-3-Copy" fill="#000000" cx="64.4045802" cy="10.5503731" rx="6.91348601" ry="6.91231343"></ellipse>
                        <ellipse id="Oval-4" fill="#FFFFFF" cx="19.648855" cy="6.54850746" rx="2.18320611" ry="2.18283582"></ellipse>
                        <ellipse id="Oval-4-Copy" fill="#FFFFFF" cx="63.3129771" cy="7.2761194" rx="2.18320611" ry="2.18283582"></ellipse>
                    </g>
                    <path d="M138.735471,96.5858209 C138.735471,96.5858209 135.824529,92.2201493 144.557354,92.2201493 C153.290178,92.2201493 150.379237,96.5858209 150.379237,96.5858209 L144.557354,102.406716 L138.735471,96.5858209 Z" id="Path-3" fill="#FF6767"></path>
                    <polyline id="Path-4" stroke="#000000" stroke-width="2" points="144.819338 101.679104 144.819338 120.597015 140.452926 125.690299"></polyline>
                    <path d="M144.455471,121.688433 L148.094148,126.781716" id="Line" stroke="#000000" stroke-width="2" stroke-linecap="square"></path>
                </g>
                <rect id="Rectangle-10" fill="#7D002C" x="80" y="233" width="155" height="21"></rect>
                <text id="Adopt-Me!" font-family="Helvetica-Bold, Helvetica" font-size="37" font-weight="bold" letter-spacing="-2.04733324" fill="#FDBABA">
                    <tspan x="74" y="251">Adopt Me!</tspan>
                </text>
            </g>
        </g>
    </g>
</svg>